# xmcd
#
# Track frame offsets:
#	150
#	20337
#	34503
#	44206
#	52210
#
# Disc length: 938 seconds
#
# Revision: 5
# Processed by: cddbd v1.5.1PL0 Copyright (c) Steve Scherf et al.
# Submitted via: EasyCDDAExtractor 5.0.6
#
DISCID=4103a805
DTITLE=Spoon - Love Ways
DYEAR=2000
DGENRE=Indie
TTITLE0=Change My Life
TTITLE1=I Didn't Come Here to Die
TTITLE2=Jealousy
TTITLE3=The Figures of Art
TTITLE4=Chips And Dip
EXTD=
EXTT0=
EXTT1=
EXTT2=
EXTT3=
EXTT4=
PLAYORDER=
